# xmcd
#
# Track frame offsets:
# 150
# 15412
# 31160
# 42932
# 56875
# 68960
# 83130
# 96867
# 108587
# 123675
# 139105
# 151905
# 165477
# 184384
# 200509
# 214810
# 231350
# 249600
# 263310
# 277950
#
# Disc length: 3958 seconds
#
#
# Revision: 3
# Processed by: cddbd v1.5.1PL0 Copyright (c) Steve Scherf et al.
# Submitted via: FreeRIP 2.81 
#
DISCID=1a0f7414
DTITLE=Keith Whitley - The Essential Keith Whitley
DYEAR=1996
DGENRE=
TTITLE0=Turn Me To Love
TTITLE1=Living Like There's No Tomorrow (Finally Got To Me Tonight)
TTITLE2=A Hard Act To Follow
TTITLE3=If A Broken Heart Could Kill
TTITLE4=If You Think I'm Crazy Now
TTITLE5=Don't Our Love Look Natural
TTITLE6=I Wonder Where You Are Tonight
TTITLE7=I've Got The Heart For You
TTITLE8=Ten Feet Away
TTITLE9=Miami, My Amy
TTITLE10=Hard Livn'
TTITLE11=Homecoming
TTITLE12=Don't Close Your Eyes
TTITLE13=I'm No Stranger ToThe Rain
TTITLE14=Would These Arms Be In Your Way
TTITLE15=When You Say Nothin At All
TTITLE16=It Ain't Nothin
TTITLE17=I'm Over You
TTITLE18=I Wonder Do You Think Of Me
TTITLE19=I'm Losing You All Over Again
EXTD=
EXTT0=
EXTT1=
EXTT2=
EXTT3=
EXTT4=
EXTT5=
EXTT6=
EXTT7=
EXTT8=
EXTT9=
EXTT10=
EXTT11=
EXTT12=
EXTT13=
EXTT14=
EXTT15=
EXTT16=
EXTT17=
EXTT18=
EXTT19=
PLAYORDER=
